<svg xmlns="http://www.w3.org/2000/svg" xmlns:xlink="http://www.w3.org/1999/xlink" width="2245" zoomAndPan="magnify" viewBox="0 0 1683.75 1190.250009" height="1587" preserveAspectRatio="xMidYMid meet" version="1.0"><defs><g/><clipPath id="22ff04dec0"><path d="M 308.382812 400.707031 L 704.28125 400.707031 L 704.28125 844.546875 L 308.382812 844.546875 Z M 308.382812 400.707031 " clip-rule="nonzero"/></clipPath><clipPath id="8c69dd24ac"><path d="M 669.089844 491.992188 L 611.902344 585.015625 L 704.28125 620.664062 L 663.957031 768.457031 L 571.582031 732.8125 L 571.582031 844.09375 L 441.082031 844.09375 L 441.082031 732.8125 L 348.703125 768.457031 L 308.382812 620.664062 L 400.757812 585.015625 L 343.574219 491.992188 L 449.144531 400.707031 L 506.332031 493.730469 L 563.515625 400.707031 Z M 669.089844 491.992188 " clip-rule="nonzero"/></clipPath><clipPath id="0856c99a2f"><path d="M 0.382812 0.707031 L 396.28125 0.707031 L 396.28125 444.269531 L 0.382812 444.269531 Z M 0.382812 0.707031 " clip-rule="nonzero"/></clipPath><clipPath id="d5b7c1240f"><path d="M 361.089844 91.992188 L 303.902344 185.015625 L 396.28125 220.664062 L 355.957031 368.457031 L 263.582031 332.8125 L 263.582031 444.09375 L 133.082031 444.09375 L 133.082031 332.8125 L 40.703125 368.457031 L 0.382812 220.664062 L 92.757812 185.015625 L 35.574219 91.992188 L 141.144531 0.707031 L 198.332031 93.730469 L 255.515625 0.707031 Z M 361.089844 91.992188 " clip-rule="nonzero"/></clipPath><clipPath id="3b035ddef1"><rect x="0" width="397" y="0" height="445"/></clipPath><clipPath id="5a693b8693"><rect x="0" width="505" y="0" height="1105"/></clipPath></defs><g clip-path="url(#22ff04dec0)"><g clip-path="url(#8c69dd24ac)"><g transform="matrix(1, 0, 0, 1, 308, 400)"><g clip-path="url(#3b035ddef1)"><g clip-path="url(#0856c99a2f)"><g clip-path="url(#d5b7c1240f)"><path fill="#f7931a" d="M 0.382812 0.707031 L 396.28125 0.707031 L 396.28125 444.546875 L 0.382812 444.546875 Z M 0.382812 0.707031 " fill-opacity="1" fill-rule="nonzero"/></g></g></g></g></g></g><g transform="matrix(1, 0, 0, 1, 2, 0.00000000000002896)"><g clip-path="url(#5a693b8693)"><g fill="#222222" fill-opacity="1"><g transform="translate(0.353739, 843.786445)"><g><path d="M 62.5 0 L 62.5 -625.03125 L 175.015625 -625.03125 L 175.015625 -279.484375 L 191.078125 -279.484375 L 337.515625 -442.875 L 483.953125 -442.875 L 279.484375 -228.578125 L 491.09375 0 L 346.453125 0 L 191.078125 -175.90625 L 175.015625 -175.90625 L 175.015625 0 Z M 62.5 0 "/></g></g></g></g></g><g fill="#222222" fill-opacity="1"><g transform="translate(414.657459, 838.974686)"><g><path d="M 71.71875 96.265625 L 71.71875 70.265625 L 208.40625 70.265625 C 218.03125 70.265625 222.84375 65.453125 222.84375 55.828125 L 222.84375 -40.4375 L 217.078125 -40.4375 C 213.222656 -32.726562 207.84375 -25.425781 200.9375 -18.53125 C 194.039062 -11.632812 185.054688 -6.019531 173.984375 -1.6875 C 162.921875 2.644531 149.046875 4.8125 132.359375 4.8125 C 115.671875 4.8125 100.1875 1.285156 85.90625 -5.765625 C 71.632812 -12.828125 60.242188 -23.414062 51.734375 -37.53125 C 43.234375 -51.65625 38.984375 -69.46875 38.984375 -90.96875 L 38.984375 -233.921875 L 67.859375 -233.921875 L 67.859375 -92.890625 C 67.859375 -67.546875 74.273438 -49.253906 87.109375 -38.015625 C 99.953125 -26.785156 117.125 -21.171875 138.625 -21.171875 C 162.6875 -21.171875 182.738281 -29.03125 198.78125 -44.75 C 214.820312 -60.476562 222.84375 -84.390625 222.84375 -116.484375 L 222.84375 -233.921875 L 251.71875 -233.921875 L 251.71875 59.6875 C 251.71875 71.238281 248.585938 80.222656 242.328125 86.640625 C 236.078125 93.054688 226.695312 96.265625 214.1875 96.265625 Z M 71.71875 96.265625 "/></g></g></g><g fill="#222222" fill-opacity="1"><g transform="translate(657.240347, 838.974686)"><g><path d="M 80.859375 0 L 27.921875 -233.921875 L 57.75 -233.921875 L 103.96875 -19.25 L 109.734375 -19.25 L 169.90625 -233.921875 L 219 -233.921875 L 279.15625 -19.25 L 284.9375 -19.25 L 331.140625 -233.921875 L 360.984375 -233.921875 L 308.046875 0 L 257.5 0 L 197.34375 -214.671875 L 191.5625 -214.671875 L 131.390625 0 Z M 80.859375 0 "/></g></g></g><g fill="#222222" fill-opacity="1"><g transform="translate(994.642519, 838.974686)"><g><path d="M 114.078125 6.734375 C 97.710938 6.734375 82.867188 3.925781 69.546875 -1.6875 C 56.234375 -7.300781 45.722656 -15.5625 38.015625 -26.46875 C 30.316406 -37.382812 26.46875 -50.539062 26.46875 -65.9375 C 26.46875 -81.664062 30.316406 -94.660156 38.015625 -104.921875 C 45.722656 -115.191406 56.15625 -122.894531 69.3125 -128.03125 C 82.46875 -133.164062 97.066406 -135.734375 113.109375 -135.734375 L 198.78125 -135.734375 L 198.78125 -154.5 C 198.78125 -173.4375 193.320312 -188.195312 182.40625 -198.78125 C 171.5 -209.375 155.617188 -214.671875 134.765625 -214.671875 C 114.234375 -214.671875 97.945312 -209.613281 85.90625 -199.5 C 73.875 -189.394531 65.773438 -175.835938 61.609375 -158.828125 L 33.6875 -167.015625 C 37.539062 -180.816406 43.640625 -193.25 51.984375 -204.3125 C 60.328125 -215.382812 71.394531 -224.207031 85.1875 -230.78125 C 98.988281 -237.363281 115.515625 -240.65625 134.765625 -240.65625 C 164.285156 -240.65625 187.144531 -232.953125 203.34375 -217.546875 C 219.550781 -202.148438 227.65625 -180.65625 227.65625 -153.0625 L 227.65625 -39.46875 C 227.65625 -29.84375 232.148438 -25.03125 241.140625 -25.03125 L 263.765625 -25.03125 L 263.765625 0 L 232.953125 0 C 223.003906 0 215.140625 -2.96875 209.359375 -8.90625 C 203.585938 -14.84375 200.703125 -22.941406 200.703125 -33.203125 L 200.703125 -36.578125 L 195.890625 -36.578125 C 191.722656 -29.515625 186.347656 -22.613281 179.765625 -15.875 C 173.191406 -9.144531 164.609375 -3.695312 154.015625 0.46875 C 143.429688 4.644531 130.117188 6.734375 114.078125 6.734375 Z M 116 -19.25 C 140.707031 -19.25 160.679688 -26.707031 175.921875 -41.625 C 191.160156 -56.550781 198.78125 -77.648438 198.78125 -104.921875 L 198.78125 -110.703125 L 113.59375 -110.703125 C 96.90625 -110.703125 83.023438 -107.09375 71.953125 -99.875 C 60.878906 -92.65625 55.34375 -81.503906 55.34375 -66.421875 C 55.34375 -51.335938 61.039062 -39.703125 72.4375 -31.515625 C 83.832031 -23.335938 98.351562 -19.25 116 -19.25 Z M 116 -19.25 "/></g></g></g><g fill="#222222" fill-opacity="1"><g transform="translate(1219.416697, 838.974686)"><g><path d="M 42.359375 0 L 42.359375 -233.921875 L 70.265625 -233.921875 L 70.265625 -204.5625 L 76.046875 -204.5625 C 80.535156 -215.144531 87.191406 -222.84375 96.015625 -227.65625 C 104.847656 -232.46875 117.125 -234.875 132.84375 -234.875 L 160.28125 -234.875 L 160.28125 -207.921875 L 129.46875 -207.921875 C 111.820312 -207.921875 97.703125 -202.945312 87.109375 -193 C 76.523438 -183.050781 71.234375 -167.488281 71.234375 -146.3125 L 71.234375 0 Z M 42.359375 0 "/></g></g></g><g fill="#222222" fill-opacity="1"><g transform="translate(1345.521251, 838.974686)"><g><path d="M 143.4375 6.734375 C 122.570312 6.734375 103.632812 1.84375 86.625 -7.9375 C 69.625 -17.726562 56.066406 -31.6875 45.953125 -49.8125 C 35.847656 -67.945312 30.796875 -89.367188 30.796875 -114.078125 L 30.796875 -119.84375 C 30.796875 -144.550781 35.769531 -165.96875 45.71875 -184.09375 C 55.664062 -202.226562 69.222656 -216.1875 86.390625 -225.96875 C 103.554688 -235.757812 122.570312 -240.65625 143.4375 -240.65625 C 160.757812 -240.65625 175.359375 -238.328125 187.234375 -233.671875 C 199.109375 -229.023438 208.8125 -223.09375 216.34375 -215.875 C 223.882812 -208.65625 229.742188 -201.03125 233.921875 -193 L 239.6875 -193 L 239.6875 -336.921875 L 268.578125 -336.921875 L 268.578125 0 L 240.65625 0 L 240.65625 -42.84375 L 234.875 -42.84375 C 228.132812 -30 217.625 -18.523438 203.34375 -8.421875 C 189.070312 1.679688 169.101562 6.734375 143.4375 6.734375 Z M 150.171875 -19.25 C 176.804688 -19.25 198.382812 -27.75 214.90625 -44.75 C 231.425781 -61.757812 239.6875 -85.1875 239.6875 -115.03125 L 239.6875 -118.890625 C 239.6875 -148.722656 231.425781 -172.144531 214.90625 -189.15625 C 198.382812 -206.164062 176.804688 -214.671875 150.171875 -214.671875 C 123.859375 -214.671875 102.359375 -206.164062 85.671875 -189.15625 C 68.984375 -172.144531 60.640625 -148.722656 60.640625 -118.890625 L 60.640625 -115.03125 C 60.640625 -85.1875 68.984375 -61.757812 85.671875 -44.75 C 102.359375 -27.75 123.859375 -19.25 150.171875 -19.25 Z M 150.171875 -19.25 "/></g></g></g></svg>