<svg xmlns="http://www.w3.org/2000/svg" xmlns:xlink="http://www.w3.org/1999/xlink" width="500" zoomAndPan="magnify" viewBox="0 0 375 374.999991" height="500" preserveAspectRatio="xMidYMid meet" version="1.0"><defs><g/><clipPath id="7a60e83894"><path d="M 143.125 117.074219 L 350.113281 117.074219 L 350.113281 349 L 143.125 349 Z M 143.125 117.074219 " clip-rule="nonzero"/></clipPath><clipPath id="3168552a50"><path d="M 331.714844 164.800781 L 301.816406 213.4375 L 350.113281 232.074219 L 329.03125 309.34375 L 280.734375 290.707031 L 280.734375 348.890625 L 212.503906 348.890625 L 212.503906 290.707031 L 164.207031 309.34375 L 143.125 232.074219 L 191.421875 213.4375 L 161.523438 164.800781 L 216.71875 117.074219 L 246.617188 165.707031 L 276.515625 117.074219 Z M 331.714844 164.800781 " clip-rule="nonzero"/></clipPath><clipPath id="ac3f90d3f4"><path d="M 0.125 0.0742188 L 207.113281 0.0742188 L 207.113281 231.960938 L 0.125 231.960938 Z M 0.125 0.0742188 " clip-rule="nonzero"/></clipPath><clipPath id="0055a88e85"><path d="M 188.714844 47.800781 L 158.816406 96.4375 L 207.113281 115.074219 L 186.03125 192.34375 L 137.734375 173.707031 L 137.734375 231.890625 L 69.503906 231.890625 L 69.503906 173.707031 L 21.207031 192.34375 L 0.125 115.074219 L 48.421875 96.4375 L 18.523438 47.800781 L 73.71875 0.0742188 L 103.617188 48.707031 L 133.515625 0.0742188 Z M 188.714844 47.800781 " clip-rule="nonzero"/></clipPath><clipPath id="051186f01c"><rect x="0" width="208" y="0" height="232"/></clipPath><clipPath id="e59badd1e1"><rect x="0" width="265" y="0" height="375"/></clipPath></defs><g clip-path="url(#7a60e83894)"><g clip-path="url(#3168552a50)"><g transform="matrix(1, 0, 0, 1, 143, 117)"><g clip-path="url(#051186f01c)"><g clip-path="url(#ac3f90d3f4)"><g clip-path="url(#0055a88e85)"><path fill="#f7931a" d="M 0.125 0.0742188 L 207.113281 0.0742188 L 207.113281 232.125 L 0.125 232.125 Z M 0.125 0.0742188 " fill-opacity="1" fill-rule="nonzero"/></g></g></g></g></g></g><g transform="matrix(1, 0, 0, 1, 16, 0)"><g clip-path="url(#e59badd1e1)"><g fill="#f6f4f0" fill-opacity="1"><g transform="translate(0.67148, 348.729372)"><g><path d="M 32.671875 0 L 32.671875 -326.796875 L 91.5 -326.796875 L 91.5 -146.125 L 99.90625 -146.125 L 176.46875 -231.546875 L 253.03125 -231.546875 L 146.125 -119.515625 L 256.765625 0 L 181.140625 0 L 99.90625 -91.96875 L 91.5 -91.96875 L 91.5 0 Z M 32.671875 0 "/></g></g></g></g></g></svg>