<svg xmlns="http://www.w3.org/2000/svg" xmlns:xlink="http://www.w3.org/1999/xlink" width="500" zoomAndPan="magnify" viewBox="0 0 375 374.999991" height="500" preserveAspectRatio="xMidYMid meet" version="1.0"><defs><g/><clipPath id="ce14609a58"><path d="M 164 158 L 353 158 L 353 347 L 164 347 Z M 164 158 " clip-rule="nonzero"/></clipPath><clipPath id="c7386e479b"><path d="M 159.160156 164.855469 L 348.308594 154.234375 L 358.726562 339.757812 L 169.578125 350.378906 Z M 159.160156 164.855469 " clip-rule="nonzero"/></clipPath><clipPath id="3fce2722ed"><path d="M 333.046875 193.410156 L 308.007812 233.859375 L 352.828125 246.304688 L 337.101562 309.226562 L 292.28125 296.78125 L 294.894531 343.34375 L 232.761719 346.832031 L 230.144531 300.269531 L 187 317.652344 L 164.328125 256.890625 L 207.472656 239.507812 L 178.058594 202.113281 L 226.183594 161.09375 L 255.59375 198.488281 L 280.636719 158.035156 Z M 333.046875 193.410156 " clip-rule="nonzero"/></clipPath><clipPath id="2a5dd3ff56"><path d="M 0.160156 0 L 189 0 L 189 189 L 0.160156 189 Z M 0.160156 0 " clip-rule="nonzero"/></clipPath><clipPath id="d0921a1a0a"><path d="M -4.839844 6.855469 L 184.308594 -3.765625 L 194.726562 181.757812 L 5.578125 192.378906 Z M -4.839844 6.855469 " clip-rule="nonzero"/></clipPath><clipPath id="0d6dd346ce"><path d="M 169.046875 35.410156 L 144.007812 75.859375 L 188.828125 88.304688 L 173.101562 151.226562 L 128.28125 138.78125 L 130.894531 185.34375 L 68.761719 188.832031 L 66.144531 142.269531 L 23 159.652344 L 0.328125 98.890625 L 43.472656 81.507812 L 14.058594 44.113281 L 62.183594 3.09375 L 91.59375 40.488281 L 116.636719 0.0351562 Z M 169.046875 35.410156 " clip-rule="nonzero"/></clipPath><clipPath id="9f4d2d2e42"><rect x="0" width="189" y="0" height="189"/></clipPath><clipPath id="e3433f73e4"><rect x="0" width="259" y="0" height="375"/></clipPath></defs><g clip-path="url(#ce14609a58)"><g clip-path="url(#c7386e479b)"><g clip-path="url(#3fce2722ed)"><g transform="matrix(1, 0, 0, 1, 164, 158)"><g clip-path="url(#9f4d2d2e42)"><g clip-path="url(#2a5dd3ff56)"><g clip-path="url(#d0921a1a0a)"><g clip-path="url(#0d6dd346ce)"><path fill="#f7931a" d="M -4.839844 6.855469 L 183.582031 -3.722656 L 194 181.800781 L 5.578125 192.378906 Z M -4.839844 6.855469 " fill-opacity="1" fill-rule="nonzero"/></g></g></g></g></g></g></g></g><g transform="matrix(1, 0, 0, 1, 40, 0)"><g clip-path="url(#e3433f73e4)"><g fill="#fffcf6" fill-opacity="1"><g transform="translate(1.241109, 343.93944)"><g><path d="M 159.734375 -161.59375 C 163.765625 -158.5 167.945312 -152.460938 172.28125 -143.484375 C 176.613281 -134.503906 181.023438 -123.898438 185.515625 -111.671875 C 190.003906 -99.453125 194.644531 -86.992188 199.4375 -74.296875 C 204.238281 -61.609375 209.269531 -49.769531 214.53125 -38.78125 C 219.789062 -27.789062 225.363281 -19.195312 231.25 -13 C 237.4375 -6.1875 244.867188 -2.78125 253.546875 -2.78125 L 253.546875 0 L 169.03125 0 C 165.3125 0 161.90625 -1.390625 158.8125 -4.171875 C 155.71875 -6.960938 152.46875 -11.765625 149.0625 -18.578125 C 145.03125 -26.929688 140.925781 -36.757812 136.75 -48.0625 C 132.570312 -59.363281 128.394531 -70.660156 124.21875 -81.953125 C 120.039062 -93.253906 115.9375 -103.238281 111.90625 -111.90625 C 107.882812 -120.570312 104.015625 -126.457031 100.296875 -129.5625 C 100.296875 -127.695312 100.296875 -122.273438 100.296875 -113.296875 C 100.296875 -104.328125 100.296875 -93.957031 100.296875 -82.1875 C 100.296875 -70.425781 100.296875 -59.359375 100.296875 -48.984375 C 100.296875 -38.617188 100.296875 -30.804688 100.296875 -25.546875 C 100.296875 -19.972656 102.15625 -15.015625 105.875 -10.671875 C 109.59375 -6.335938 114.082031 -3.707031 119.34375 -2.78125 L 119.34375 0 L 11.609375 0 L 11.609375 -2.78125 C 16.867188 -3.707031 21.351562 -6.335938 25.0625 -10.671875 C 28.78125 -15.015625 30.640625 -19.972656 30.640625 -25.546875 L 30.640625 -287.90625 C 30.640625 -293.476562 28.78125 -298.429688 25.0625 -302.765625 C 21.351562 -307.097656 16.867188 -309.726562 11.609375 -310.65625 L 11.609375 -313.4375 L 91.015625 -325.046875 C 91.328125 -325.046875 91.554688 -325.046875 91.703125 -325.046875 C 91.859375 -325.046875 92.09375 -325.046875 92.40625 -325.046875 C 97.664062 -325.046875 100.296875 -322.257812 100.296875 -316.6875 C 100.296875 -275.519531 100.296875 -239.222656 100.296875 -207.796875 C 100.296875 -176.378906 100.296875 -151.226562 100.296875 -132.34375 C 107.734375 -132.34375 116.015625 -134.972656 125.140625 -140.234375 C 134.273438 -145.492188 143.019531 -151.53125 151.375 -158.34375 C 159.738281 -165.15625 166.394531 -170.882812 171.34375 -175.53125 C 177.539062 -181.71875 180.640625 -188.835938 180.640625 -196.890625 C 180.640625 -204.316406 178.160156 -210.738281 173.203125 -216.15625 C 168.253906 -221.570312 162.21875 -224.59375 155.09375 -225.21875 L 155.09375 -228 L 253.546875 -228 C 253.546875 -228 253.546875 -227.6875 253.546875 -227.0625 C 253.546875 -226.445312 253.546875 -225.832031 253.546875 -225.21875 C 242.398438 -224.289062 231.5625 -220.34375 221.03125 -213.375 C 210.507812 -206.40625 200.21875 -198.195312 190.15625 -188.75 C 180.09375 -179.3125 169.953125 -170.257812 159.734375 -161.59375 Z M 159.734375 -161.59375 "/></g></g></g></g></g></svg>